<svg xmlns="http://www.w3.org/2000/svg">
  <symbol id="icon-menu" viewBox="0 0 24 24">
    <path d="M4 6h16M4 12h16M4 18h16"/>
  </symbol>
  <symbol id="icon-x" viewBox="0 0 24 24">
    <path d="M18 6 6 18M6 6l12 12"/>
  </symbol>
  <symbol id="icon-home" viewBox="0 0 24 24">
    <path d="m3 11 9-8 9 8v9a1 1 0 0 1-1 1h-5v-7H9v7H4a1 1 0 0 1-1-1Z"/>
  </symbol>
  <symbol id="icon-calendar" viewBox="0 0 24 24">
    <path d="M6 2v4M18 2v4M3 9h18M5 4h14a2 2 0 0 1 2 2v14a2 2 0 0 1-2 2H5a2 2 0 0 1-2-2V6a2 2 0 0 1 2-2Z"/>
  </symbol>
  <symbol id="icon-users" viewBox="0 0 24 24">
    <path d="M16 21v-2a4 4 0 0 0-4-4H6a4 4 0 0 0-4 4v2M9 11a4 4 0 1 0 0-8 4 4 0 0 0 0 8ZM22 21v-2a4 4 0 0 0-3-3.87M16 3.13a4 4 0 0 1 0 7.75"/>
  </symbol>
  <symbol id="icon-stethoscope" viewBox="0 0 24 24">
    <path d="M11 2v2M5 2v2M4 3H2v5a6 6 0 0 0 12 0V3h-2M8 14v2a5 5 0 0 0 10 0v-3"/>
    <circle cx="18" cy="10" r="3"/>
  </symbol>
  <symbol id="icon-file-heart" viewBox="0 0 24 24">
    <path d="M14 2H6a2 2 0 0 0-2 2v16a2 2 0 0 0 2 2h12a2 2 0 0 0 2-2V8Z"/>
    <path d="M14 2v6h6M12 18s-4-2.2-4-5a2 2 0 0 1 4-1.2A2 2 0 0 1 16 13c0 2.8-4 5-4 5Z"/>
  </symbol>
  <symbol id="icon-chart" viewBox="0 0 24 24">
    <path d="M3 3v18h18M7 16l4-5 4 3 5-7"/>
  </symbol>
  <symbol id="icon-shield" viewBox="0 0 24 24">
    <path d="M12 22s8-4 8-10V5l-8-3-8 3v7c0 6 8 10 8 10Z"/>
    <path d="m9 12 2 2 4-4"/>
  </symbol>
  <symbol id="icon-bell" viewBox="0 0 24 24">
    <path d="M18 8a6 6 0 0 0-12 0c0 7-3 7-3 9h18c0-2-3-2-3-9M10 21h4"/>
  </symbol>
  <symbol id="icon-user" viewBox="0 0 24 24">
    <circle cx="12" cy="8" r="4"/>
    <path d="M4 22a8 8 0 0 1 16 0"/>
  </symbol>
  <symbol id="icon-settings" viewBox="0 0 24 24">
    <circle cx="12" cy="12" r="3"/>
    <path d="M19.4 15a1.7 1.7 0 0 0 .34 1.88l.06.06-2.83 2.83-.06-.06a1.7 1.7 0 0 0-1.88-.34 1.7 1.7 0 0 0-1.03 1.56V21h-4v-.08A1.7 1.7 0 0 0 9 19.37a1.7 1.7 0 0 0-1.88.34l-.06.06-2.83-2.83.06-.06A1.7 1.7 0 0 0 4.63 15 1.7 1.7 0 0 0 3.08 14H3v-4h.08A1.7 1.7 0 0 0 4.63 9a1.7 1.7 0 0 0-.34-1.88l-.06-.06 2.83-2.83.06.06A1.7 1.7 0 0 0 9 4.63 1.7 1.7 0 0 0 10 3.08V3h4v.08A1.7 1.7 0 0 0 15 4.63a1.7 1.7 0 0 0 1.88-.34l.06-.06 2.83 2.83-.06.06A1.7 1.7 0 0 0 19.37 9 1.7 1.7 0 0 0 20.92 10H21v4h-.08A1.7 1.7 0 0 0 19.4 15Z"/>
  </symbol>
  <symbol id="icon-log-out" viewBox="0 0 24 24">
    <path d="M10 17l5-5-5-5M15 12H3M15 3h4a2 2 0 0 1 2 2v14a2 2 0 0 1-2 2h-4"/>
  </symbol>
  <symbol id="icon-plus" viewBox="0 0 24 24">
    <path d="M12 5v14M5 12h14"/>
  </symbol>
  <symbol id="icon-search" viewBox="0 0 24 24">
    <circle cx="11" cy="11" r="8"/>
    <path d="m21 21-4.35-4.35"/>
  </symbol>
  <symbol id="icon-filter" viewBox="0 0 24 24">
    <path d="M4 4h16l-6 7v7l-4 2v-9Z"/>
  </symbol>
  <symbol id="icon-chevron-right" viewBox="0 0 24 24">
    <path d="m9 18 6-6-6-6"/>
  </symbol>
  <symbol id="icon-chevron-left" viewBox="0 0 24 24">
    <path d="m15 18-6-6 6-6"/>
  </symbol>
  <symbol id="icon-edit" viewBox="0 0 24 24">
    <path d="M12 20h9M16.5 3.5a2.12 2.12 0 0 1 3 3L8 18l-4 1 1-4Z"/>
  </symbol>
  <symbol id="icon-eye" viewBox="0 0 24 24">
    <path d="M2 12s3.5-7 10-7 10 7 10 7-3.5 7-10 7S2 12 2 12Z"/>
    <circle cx="12" cy="12" r="3"/>
  </symbol>
  <symbol id="icon-eye-off" viewBox="0 0 24 24">
    <path d="m3 3 18 18M10.6 5.2A10.8 10.8 0 0 1 12 5c6.5 0 10 7 10 7a18 18 0 0 1-2.1 3M6.2 6.2C3.5 8.1 2 12 2 12s3.5 7 10 7a10.8 10.8 0 0 0 3.8-.7M9.9 9.9a3 3 0 0 0 4.2 4.2"/>
  </symbol>
  <symbol id="icon-check" viewBox="0 0 24 24">
    <path d="m20 6-11 11-5-5"/>
  </symbol>
  <symbol id="icon-alert" viewBox="0 0 24 24">
    <path d="M10.3 2.9 1.8 17a2 2 0 0 0 1.7 3h17a2 2 0 0 0 1.7-3L13.7 2.9a2 2 0 0 0-3.4 0ZM12 9v4M12 17h.01"/>
  </symbol>
  <symbol id="icon-clock" viewBox="0 0 24 24">
    <circle cx="12" cy="12" r="9"/>
    <path d="M12 7v5l3 2"/>
  </symbol>
  <symbol id="icon-phone" viewBox="0 0 24 24">
    <path d="M22 16.9v3a2 2 0 0 1-2.18 2A19.8 19.8 0 0 1 3.1 5.18 2 2 0 0 1 5.1 3h3a2 2 0 0 1 2 1.72c.12.9.33 1.78.62 2.62a2 2 0 0 1-.45 2.11L9 10.72a16 16 0 0 0 4.28 4.28l1.27-1.27a2 2 0 0 1 2.11-.45c.84.29 1.72.5 2.62.62A2 2 0 0 1 22 16.9Z"/>
  </symbol>
  <symbol id="icon-mail" viewBox="0 0 24 24">
    <rect x="3" y="5" width="18" height="14" rx="2"/>
    <path d="m3 7 9 6 9-6"/>
  </symbol>
  <symbol id="icon-refresh" viewBox="0 0 24 24">
    <path d="M20 6v5h-5M4 18v-5h5M19 11a7 7 0 0 0-12-4L4 10M5 13a7 7 0 0 0 12 4l3-3"/>
  </symbol>
  <symbol id="icon-more" viewBox="0 0 24 24">
    <circle cx="5" cy="12" r="1"/><circle cx="12" cy="12" r="1"/><circle cx="19" cy="12" r="1"/>
  </symbol>
  <symbol id="icon-download" viewBox="0 0 24 24">
    <path d="M12 3v12M7 10l5 5 5-5M5 21h14"/>
  </symbol>
</svg>
